<svg width="94" height="86" viewBox="0 0 94 86" fill="none" xmlns="http://www.w3.org/2000/svg">
<path d="M90.5 42.6389C90.5 65.9131 71.6945 84.7778 48.5 84.7778C25.3056 84.7778 6.50003 65.9131 6.50003 42.6389C6.50003 19.3647 25.3056 0.5 48.5 0.5C71.6945 0.5 90.5 19.3647 90.5 42.6389Z" fill="#140700" stroke="white"/>
<mask id="path-2-outside-1_206_3" maskUnits="userSpaceOnUse" x="1.17444" y="22.4146" width="93" height="27" fill="black">
<rect fill="white" x="1.17444" y="22.4146" width="93" height="27"/>
<path d="M10.9554 47.1007C9.89314 47.1007 8.95158 46.977 8.13074 46.7294C7.33404 46.4819 6.69426 45.9745 6.21141 45.2071C5.75271 44.415 5.52335 43.2269 5.52335 41.6427V36.9517L3.17444 35.7577L5.52335 34.5637V29.2786C5.52335 27.8924 5.75271 26.8528 6.21141 26.1597C6.69426 25.4666 7.34611 25.0087 8.16695 24.7859C9.01194 24.5384 9.95349 24.4146 10.9916 24.4146C12.0539 24.4146 12.9834 24.5384 13.7801 24.7859C14.5768 25.0334 15.2045 25.5037 15.6632 26.1968C16.1219 26.8899 16.3512 27.9172 16.3512 29.2786V31.5786H14.0698V29.2414C14.0698 28.2761 13.937 27.5582 13.6714 27.0879C13.4059 26.5929 13.1212 26.2711 12.6384 26.1226C12.1797 25.9741 11.559 25.8998 10.9554 25.8998C10.3518 25.8998 9.80864 25.9741 9.32579 26.1226C8.86708 26.2711 8.50495 26.5929 8.23938 27.0879C7.99795 27.5582 7.87724 28.2761 7.87724 29.2414V42.2739C7.87724 43.264 7.99795 44.0066 8.23938 44.5017C8.50495 44.972 8.86708 45.2814 9.32579 45.4299C9.80864 45.5784 10.3518 45.6527 10.9554 45.6527C11.5831 45.6527 12.1263 45.5784 12.585 45.4299C13.0437 45.2814 13.4059 44.972 13.6714 44.5017C13.937 44.0066 14.0698 43.264 14.0698 42.2739V39.9367H16.3512V41.6056C16.3512 43.2145 16.1219 44.415 15.6632 45.2071C15.2045 45.9745 14.5768 46.4819 13.7801 46.7294C12.9834 46.977 12.0418 47.1007 10.9554 47.1007Z"/>
<path d="M27.5705 47.1007V37.0475L25.1598 35.7577L27.5705 34.5637V26.1968H23.9853V24.4146H33.5095V26.1226H29.8519L29.8576 34.5637L32.2065 35.7577L29.8519 37.0475V47.1007H27.5705Z"/>
<path d="M40.4688 47.1007L42.859 36.9517L41.0973 35.7577L43.4462 34.5637L45.4972 24.4146H48.4305L50.4929 34.5637L52.8418 35.7577L51.0802 36.9517L53.4291 47.1007H50.9665L49.4807 41.4734H44.2297L42.859 47.1007H40.4688ZM44.3021 40.1739H49.4445C49.4445 40.1739 47.6168 32.0997 46.9696 32.1757C46.3223 32.2516 44.3021 40.1739 44.3021 40.1739Z"/>
<path d="M62.9435 47.1007V36.9517L60.9807 35.7577L62.9435 34.5637V24.4146H69.136C70.3673 24.4146 71.3571 24.9137 72.1056 25.5077C72.854 26.077 73.1113 26.9929 73.1113 28.2553V32.3024C73.1113 33.144 73.1863 34.1432 72.9448 34.8857C72.7034 35.6036 72.2329 36.1162 71.5811 36.5617C70.9292 37.0073 70.3435 37.023 69.1122 37.023L65.2974 37.0921V47.1007H62.9435ZM65.2974 35.7183H68.1147C69.0804 35.7183 69.8047 35.4213 70.2875 34.8272C70.7945 34.2084 70.9985 33.2678 70.9985 32.0054V29.1464C70.9985 28.0573 70.7462 27.2652 70.2875 26.7701C69.8288 26.2503 69.2736 25.9904 68.6217 25.9904H65.2974V35.7183Z"/>
<path d="M82.8693 47.1007V37.6327L80.3542 36.2983L82.8693 34.9619V24.4146H92.1038L92.0988 26.2056H85.2182L85.223 34.3097H90.7274L90.7276 36.2983H85.2231L85.2232 45.4299H92.1038V47.1007H82.8693Z"/>
</mask>
<path d="M10.9554 47.1007C9.89314 47.1007 8.95158 46.977 8.13074 46.7294C7.33404 46.4819 6.69426 45.9745 6.21141 45.2071C5.75271 44.415 5.52335 43.2269 5.52335 41.6427V36.9517L3.17444 35.7577L5.52335 34.5637V29.2786C5.52335 27.8924 5.75271 26.8528 6.21141 26.1597C6.69426 25.4666 7.34611 25.0087 8.16695 24.7859C9.01194 24.5384 9.95349 24.4146 10.9916 24.4146C12.0539 24.4146 12.9834 24.5384 13.7801 24.7859C14.5768 25.0334 15.2045 25.5037 15.6632 26.1968C16.1219 26.8899 16.3512 27.9172 16.3512 29.2786V31.5786H14.0698V29.2414C14.0698 28.2761 13.937 27.5582 13.6714 27.0879C13.4059 26.5929 13.1212 26.2711 12.6384 26.1226C12.1797 25.9741 11.559 25.8998 10.9554 25.8998C10.3518 25.8998 9.80864 25.9741 9.32579 26.1226C8.86708 26.2711 8.50495 26.5929 8.23938 27.0879C7.99795 27.5582 7.87724 28.2761 7.87724 29.2414V42.2739C7.87724 43.264 7.99795 44.0066 8.23938 44.5017C8.50495 44.972 8.86708 45.2814 9.32579 45.4299C9.80864 45.5784 10.3518 45.6527 10.9554 45.6527C11.5831 45.6527 12.1263 45.5784 12.585 45.4299C13.0437 45.2814 13.4059 44.972 13.6714 44.5017C13.937 44.0066 14.0698 43.264 14.0698 42.2739V39.9367H16.3512V41.6056C16.3512 43.2145 16.1219 44.415 15.6632 45.2071C15.2045 45.9745 14.5768 46.4819 13.7801 46.7294C12.9834 46.977 12.0418 47.1007 10.9554 47.1007Z" fill="#C74700"/>
<path d="M27.5705 47.1007V37.0475L25.1598 35.7577L27.5705 34.5637V26.1968H23.9853V24.4146H33.5095V26.1226H29.8519L29.8576 34.5637L32.2065 35.7577L29.8519 37.0475V47.1007H27.5705Z" fill="#C74700"/>
<path d="M40.4688 47.1007L42.859 36.9517L41.0973 35.7577L43.4462 34.5637L45.4972 24.4146H48.4305L50.4929 34.5637L52.8418 35.7577L51.0802 36.9517L53.4291 47.1007H50.9665L49.4807 41.4734H44.2297L42.859 47.1007H40.4688ZM44.3021 40.1739H49.4445C49.4445 40.1739 47.6168 32.0997 46.9696 32.1757C46.3223 32.2516 44.3021 40.1739 44.3021 40.1739Z" fill="#C74700"/>
<path d="M62.9435 47.1007V36.9517L60.9807 35.7577L62.9435 34.5637V24.4146H69.136C70.3673 24.4146 71.3571 24.9137 72.1056 25.5077C72.854 26.077 73.1113 26.9929 73.1113 28.2553V32.3024C73.1113 33.144 73.1863 34.1432 72.9448 34.8857C72.7034 35.6036 72.2329 36.1162 71.5811 36.5617C70.9292 37.0073 70.3435 37.023 69.1122 37.023L65.2974 37.0921V47.1007H62.9435ZM65.2974 35.7183H68.1147C69.0804 35.7183 69.8047 35.4213 70.2875 34.8272C70.7945 34.2084 70.9985 33.2678 70.9985 32.0054V29.1464C70.9985 28.0573 70.7462 27.2652 70.2875 26.7701C69.8288 26.2503 69.2736 25.9904 68.6217 25.9904H65.2974V35.7183Z" fill="#C74700"/>
<path d="M82.8693 47.1007V37.6327L80.3542 36.2983L82.8693 34.9619V24.4146H92.1038L92.0988 26.2056H85.2182L85.223 34.3097H90.7274L90.7276 36.2983H85.2231L85.2232 45.4299H92.1038V47.1007H82.8693Z" fill="#C74700"/>
<path d="M10.9554 47.1007C9.89314 47.1007 8.95158 46.977 8.13074 46.7294C7.33404 46.4819 6.69426 45.9745 6.21141 45.2071C5.75271 44.415 5.52335 43.2269 5.52335 41.6427V36.9517L3.17444 35.7577L5.52335 34.5637V29.2786C5.52335 27.8924 5.75271 26.8528 6.21141 26.1597C6.69426 25.4666 7.34611 25.0087 8.16695 24.7859C9.01194 24.5384 9.95349 24.4146 10.9916 24.4146C12.0539 24.4146 12.9834 24.5384 13.7801 24.7859C14.5768 25.0334 15.2045 25.5037 15.6632 26.1968C16.1219 26.8899 16.3512 27.9172 16.3512 29.2786V31.5786H14.0698V29.2414C14.0698 28.2761 13.937 27.5582 13.6714 27.0879C13.4059 26.5929 13.1212 26.2711 12.6384 26.1226C12.1797 25.9741 11.559 25.8998 10.9554 25.8998C10.3518 25.8998 9.80864 25.9741 9.32579 26.1226C8.86708 26.2711 8.50495 26.5929 8.23938 27.0879C7.99795 27.5582 7.87724 28.2761 7.87724 29.2414V42.2739C7.87724 43.264 7.99795 44.0066 8.23938 44.5017C8.50495 44.972 8.86708 45.2814 9.32579 45.4299C9.80864 45.5784 10.3518 45.6527 10.9554 45.6527C11.5831 45.6527 12.1263 45.5784 12.585 45.4299C13.0437 45.2814 13.4059 44.972 13.6714 44.5017C13.937 44.0066 14.0698 43.264 14.0698 42.2739V39.9367H16.3512V41.6056C16.3512 43.2145 16.1219 44.415 15.6632 45.2071C15.2045 45.9745 14.5768 46.4819 13.7801 46.7294C12.9834 46.977 12.0418 47.1007 10.9554 47.1007Z" stroke="#C74700" stroke-width="3" stroke-linejoin="round" mask="url(#path-2-outside-1_206_3)"/>
<path d="M27.5705 47.1007V37.0475L25.1598 35.7577L27.5705 34.5637V26.1968H23.9853V24.4146H33.5095V26.1226H29.8519L29.8576 34.5637L32.2065 35.7577L29.8519 37.0475V47.1007H27.5705Z" stroke="#C74700" stroke-width="3" stroke-linejoin="round" mask="url(#path-2-outside-1_206_3)"/>
<path d="M40.4688 47.1007L42.859 36.9517L41.0973 35.7577L43.4462 34.5637L45.4972 24.4146H48.4305L50.4929 34.5637L52.8418 35.7577L51.0802 36.9517L53.4291 47.1007H50.9665L49.4807 41.4734H44.2297L42.859 47.1007H40.4688ZM44.3021 40.1739H49.4445C49.4445 40.1739 47.6168 32.0997 46.9696 32.1757C46.3223 32.2516 44.3021 40.1739 44.3021 40.1739Z" stroke="#C74700" stroke-width="3" stroke-linejoin="round" mask="url(#path-2-outside-1_206_3)"/>
<path d="M62.9435 47.1007V36.9517L60.9807 35.7577L62.9435 34.5637V24.4146H69.136C70.3673 24.4146 71.3571 24.9137 72.1056 25.5077C72.854 26.077 73.1113 26.9929 73.1113 28.2553V32.3024C73.1113 33.144 73.1863 34.1432 72.9448 34.8857C72.7034 35.6036 72.2329 36.1162 71.5811 36.5617C70.9292 37.0073 70.3435 37.023 69.1122 37.023L65.2974 37.0921V47.1007H62.9435ZM65.2974 35.7183H68.1147C69.0804 35.7183 69.8047 35.4213 70.2875 34.8272C70.7945 34.2084 70.9985 33.2678 70.9985 32.0054V29.1464C70.9985 28.0573 70.7462 27.2652 70.2875 26.7701C69.8288 26.2503 69.2736 25.9904 68.6217 25.9904H65.2974V35.7183Z" stroke="#C74700" stroke-width="3" stroke-linejoin="round" mask="url(#path-2-outside-1_206_3)"/>
<path d="M82.8693 47.1007V37.6327L80.3542 36.2983L82.8693 34.9619V24.4146H92.1038L92.0988 26.2056H85.2182L85.223 34.3097H90.7274L90.7276 36.2983H85.2231L85.2232 45.4299H92.1038V47.1007H82.8693Z" stroke="#C74700" stroke-width="3" stroke-linejoin="round" mask="url(#path-2-outside-1_206_3)"/>
<mask id="path-3-outside-2_206_3" maskUnits="userSpaceOnUse" x="0" y="21.0752" width="93" height="27" fill="black">
<rect fill="white" y="21.0752" width="93" height="27"/>
<path d="M9.78097 45.7613C8.7187 45.7613 7.77714 45.6375 6.9563 45.39C6.1596 45.1425 5.51982 44.635 5.03697 43.8677C4.57827 43.0756 4.34891 41.8874 4.34891 40.3032V35.6122L2 34.4182L4.34891 33.2242V27.9391C4.34891 26.553 4.57827 25.5133 5.03697 24.8202C5.51982 24.1272 6.17167 23.6692 6.99251 23.4465C7.8375 23.1989 8.77905 23.0752 9.81718 23.0752C10.8794 23.0752 11.8089 23.1989 12.6056 23.4465C13.4023 23.694 14.03 24.1643 14.4887 24.8574C14.9475 25.5505 15.1768 26.5777 15.1768 27.9391V30.2392H12.8953V27.902C12.8953 26.9366 12.7626 26.2188 12.497 25.7485C12.2314 25.2534 11.9468 24.9316 11.464 24.7831C11.0052 24.6346 10.3845 24.5603 9.78097 24.5603C9.1774 24.5603 8.6342 24.6346 8.15135 24.7831C7.69264 24.9316 7.33051 25.2534 7.06494 25.7485C6.82352 26.2188 6.7028 26.9366 6.7028 27.902V40.9344C6.7028 41.9246 6.82352 42.6672 7.06494 43.1622C7.33051 43.6325 7.69264 43.9419 8.15135 44.0905C8.6342 44.239 9.1774 44.3132 9.78097 44.3132C10.4087 44.3132 10.9519 44.239 11.4106 44.0905C11.8693 43.9419 12.2314 43.6325 12.497 43.1622C12.7626 42.6672 12.8953 41.9246 12.8953 40.9344V38.5972H15.1768V40.2661C15.1768 41.8751 14.9475 43.0756 14.4887 43.8677C14.03 44.635 13.4023 45.1425 12.6056 45.39C11.8089 45.6375 10.8674 45.7613 9.78097 45.7613Z"/>
<path d="M26.4097 45.7613V35.708L23.999 34.4182L26.4097 33.2242V24.8574H22.8246V23.0752H32.3488V24.7831H28.6912L28.6969 33.2242L31.0458 34.4182L28.6912 35.708V45.7613H26.4097Z"/>
<path d="M38.7534 45.7613L41.1435 35.6122L39.3818 34.4182L41.7307 33.2242L43.7817 23.0752H46.715L48.7775 33.2242L51.1264 34.4182L49.3647 35.6122L51.7136 45.7613H49.2511L47.7652 40.1339H42.5142L41.1435 45.7613H38.7534ZM42.5867 38.8344H47.729C47.729 38.8344 45.9013 30.7602 45.2541 30.8362C44.6068 30.9122 42.5867 38.8344 42.5867 38.8344Z"/>
<path d="M61.8573 45.7613V35.6122L59.8945 34.4182L61.8573 33.2242V28.1497V23.0752H68.0499C69.2811 23.0752 70.271 23.5742 71.0194 24.1683C71.7678 24.7376 72.0252 25.6535 72.0252 26.9159V30.963C72.0252 31.8046 72.1001 32.8037 71.8586 33.5463C71.6172 34.2641 71.1468 34.7767 70.4949 35.2223C69.8431 35.6678 69.2573 35.6836 68.026 35.6836L64.2112 35.7527V45.7613H61.8573ZM64.2112 34.3789H67.0285C67.9942 34.3789 68.7185 34.0818 69.2014 33.4878C69.7084 32.869 69.9124 31.9283 69.9124 30.6659V27.807C69.9124 26.7178 69.6601 25.9257 69.2014 25.4307C68.7427 24.9109 68.1874 24.651 67.5355 24.651H64.2112V34.3789Z"/>
<path d="M81.6948 45.7613V36.2933L79.1797 34.9588L81.6948 33.6225V23.0752H90.9293L90.9243 24.8662H84.0437L84.0485 32.9703H89.5529L89.5531 34.9588H84.0486L84.0487 44.0905H90.9293V45.7613H81.6948Z"/>
</mask>
<path d="M9.78097 45.7613C8.7187 45.7613 7.77714 45.6375 6.9563 45.39C6.1596 45.1425 5.51982 44.635 5.03697 43.8677C4.57827 43.0756 4.34891 41.8874 4.34891 40.3032V35.6122L2 34.4182L4.34891 33.2242V27.9391C4.34891 26.553 4.57827 25.5133 5.03697 24.8202C5.51982 24.1272 6.17167 23.6692 6.99251 23.4465C7.8375 23.1989 8.77905 23.0752 9.81718 23.0752C10.8794 23.0752 11.8089 23.1989 12.6056 23.4465C13.4023 23.694 14.03 24.1643 14.4887 24.8574C14.9475 25.5505 15.1768 26.5777 15.1768 27.9391V30.2392H12.8953V27.902C12.8953 26.9366 12.7626 26.2188 12.497 25.7485C12.2314 25.2534 11.9468 24.9316 11.464 24.7831C11.0052 24.6346 10.3845 24.5603 9.78097 24.5603C9.1774 24.5603 8.6342 24.6346 8.15135 24.7831C7.69264 24.9316 7.33051 25.2534 7.06494 25.7485C6.82352 26.2188 6.7028 26.9366 6.7028 27.902V40.9344C6.7028 41.9246 6.82352 42.6672 7.06494 43.1622C7.33051 43.6325 7.69264 43.9419 8.15135 44.0905C8.6342 44.239 9.1774 44.3132 9.78097 44.3132C10.4087 44.3132 10.9519 44.239 11.4106 44.0905C11.8693 43.9419 12.2314 43.6325 12.497 43.1622C12.7626 42.6672 12.8953 41.9246 12.8953 40.9344V38.5972H15.1768V40.2661C15.1768 41.8751 14.9475 43.0756 14.4887 43.8677C14.03 44.635 13.4023 45.1425 12.6056 45.39C11.8089 45.6375 10.8674 45.7613 9.78097 45.7613Z" fill="white"/>
<path d="M26.4097 45.7613V35.708L23.999 34.4182L26.4097 33.2242V24.8574H22.8246V23.0752H32.3488V24.7831H28.6912L28.6969 33.2242L31.0458 34.4182L28.6912 35.708V45.7613H26.4097Z" fill="white"/>
<path d="M38.7534 45.7613L41.1435 35.6122L39.3818 34.4182L41.7307 33.2242L43.7817 23.0752H46.715L48.7775 33.2242L51.1264 34.4182L49.3647 35.6122L51.7136 45.7613H49.2511L47.7652 40.1339H42.5142L41.1435 45.7613H38.7534ZM42.5867 38.8344H47.729C47.729 38.8344 45.9013 30.7602 45.2541 30.8362C44.6068 30.9122 42.5867 38.8344 42.5867 38.8344Z" fill="white"/>
<path d="M61.8573 45.7613V35.6122L59.8945 34.4182L61.8573 33.2242V28.1497V23.0752H68.0499C69.2811 23.0752 70.271 23.5742 71.0194 24.1683C71.7678 24.7376 72.0252 25.6535 72.0252 26.9159V30.963C72.0252 31.8046 72.1001 32.8037 71.8586 33.5463C71.6172 34.2641 71.1468 34.7767 70.4949 35.2223C69.8431 35.6678 69.2573 35.6836 68.026 35.6836L64.2112 35.7527V45.7613H61.8573ZM64.2112 34.3789H67.0285C67.9942 34.3789 68.7185 34.0818 69.2014 33.4878C69.7084 32.869 69.9124 31.9283 69.9124 30.6659V27.807C69.9124 26.7178 69.6601 25.9257 69.2014 25.4307C68.7427 24.9109 68.1874 24.651 67.5355 24.651H64.2112V34.3789Z" fill="white"/>
<path d="M81.6948 45.7613V36.2933L79.1797 34.9588L81.6948 33.6225V23.0752H90.9293L90.9243 24.8662H84.0437L84.0485 32.9703H89.5529L89.5531 34.9588H84.0486L84.0487 44.0905H90.9293V45.7613H81.6948Z" fill="white"/>
<path d="M9.78097 45.7613C8.7187 45.7613 7.77714 45.6375 6.9563 45.39C6.1596 45.1425 5.51982 44.635 5.03697 43.8677C4.57827 43.0756 4.34891 41.8874 4.34891 40.3032V35.6122L2 34.4182L4.34891 33.2242V27.9391C4.34891 26.553 4.57827 25.5133 5.03697 24.8202C5.51982 24.1272 6.17167 23.6692 6.99251 23.4465C7.8375 23.1989 8.77905 23.0752 9.81718 23.0752C10.8794 23.0752 11.8089 23.1989 12.6056 23.4465C13.4023 23.694 14.03 24.1643 14.4887 24.8574C14.9475 25.5505 15.1768 26.5777 15.1768 27.9391V30.2392H12.8953V27.902C12.8953 26.9366 12.7626 26.2188 12.497 25.7485C12.2314 25.2534 11.9468 24.9316 11.464 24.7831C11.0052 24.6346 10.3845 24.5603 9.78097 24.5603C9.1774 24.5603 8.6342 24.6346 8.15135 24.7831C7.69264 24.9316 7.33051 25.2534 7.06494 25.7485C6.82352 26.2188 6.7028 26.9366 6.7028 27.902V40.9344C6.7028 41.9246 6.82352 42.6672 7.06494 43.1622C7.33051 43.6325 7.69264 43.9419 8.15135 44.0905C8.6342 44.239 9.1774 44.3132 9.78097 44.3132C10.4087 44.3132 10.9519 44.239 11.4106 44.0905C11.8693 43.9419 12.2314 43.6325 12.497 43.1622C12.7626 42.6672 12.8953 41.9246 12.8953 40.9344V38.5972H15.1768V40.2661C15.1768 41.8751 14.9475 43.0756 14.4887 43.8677C14.03 44.635 13.4023 45.1425 12.6056 45.39C11.8089 45.6375 10.8674 45.7613 9.78097 45.7613Z" stroke="#140700" stroke-width="4" stroke-linejoin="round" mask="url(#path-3-outside-2_206_3)"/>
<path d="M26.4097 45.7613V35.708L23.999 34.4182L26.4097 33.2242V24.8574H22.8246V23.0752H32.3488V24.7831H28.6912L28.6969 33.2242L31.0458 34.4182L28.6912 35.708V45.7613H26.4097Z" stroke="#140700" stroke-width="4" stroke-linejoin="round" mask="url(#path-3-outside-2_206_3)"/>
<path d="M38.7534 45.7613L41.1435 35.6122L39.3818 34.4182L41.7307 33.2242L43.7817 23.0752H46.715L48.7775 33.2242L51.1264 34.4182L49.3647 35.6122L51.7136 45.7613H49.2511L47.7652 40.1339H42.5142L41.1435 45.7613H38.7534ZM42.5867 38.8344H47.729C47.729 38.8344 45.9013 30.7602 45.2541 30.8362C44.6068 30.9122 42.5867 38.8344 42.5867 38.8344Z" stroke="#140700" stroke-width="4" stroke-linejoin="round" mask="url(#path-3-outside-2_206_3)"/>
<path d="M61.8573 45.7613V35.6122L59.8945 34.4182L61.8573 33.2242V28.1497V23.0752H68.0499C69.2811 23.0752 70.271 23.5742 71.0194 24.1683C71.7678 24.7376 72.0252 25.6535 72.0252 26.9159V30.963C72.0252 31.8046 72.1001 32.8037 71.8586 33.5463C71.6172 34.2641 71.1468 34.7767 70.4949 35.2223C69.8431 35.6678 69.2573 35.6836 68.026 35.6836L64.2112 35.7527V45.7613H61.8573ZM64.2112 34.3789H67.0285C67.9942 34.3789 68.7185 34.0818 69.2014 33.4878C69.7084 32.869 69.9124 31.9283 69.9124 30.6659V27.807C69.9124 26.7178 69.6601 25.9257 69.2014 25.4307C68.7427 24.9109 68.1874 24.651 67.5355 24.651H64.2112V34.3789Z" stroke="#140700" stroke-width="4" stroke-linejoin="round" mask="url(#path-3-outside-2_206_3)"/>
<path d="M81.6948 45.7613V36.2933L79.1797 34.9588L81.6948 33.6225V23.0752H90.9293L90.9243 24.8662H84.0437L84.0485 32.9703H89.5529L89.5531 34.9588H84.0486L84.0487 44.0905H90.9293V45.7613H81.6948Z" stroke="#140700" stroke-width="4" stroke-linejoin="round" mask="url(#path-3-outside-2_206_3)"/>
<mask id="path-4-outside-3_206_3" maskUnits="userSpaceOnUse" x="1" y="22.0825" width="91" height="25" fill="black">
<rect fill="white" x="1" y="22.0825" width="91" height="25"/>
<path d="M9.78097 45.7686C8.7187 45.7686 7.77714 45.6449 6.9563 45.3973C6.1596 45.1498 5.51982 44.6424 5.03697 43.875C4.57827 43.0829 4.34891 41.8948 4.34891 40.3106V35.6196L2 34.4256L4.34891 33.2316V27.9465C4.34891 26.5603 4.57827 25.5207 5.03697 24.8276C5.51982 24.1345 6.17167 23.6766 6.99251 23.4538C7.8375 23.2063 8.77906 23.0825 9.81718 23.0825C10.8794 23.0825 11.8089 23.2063 12.6056 23.4538C13.4023 23.7013 14.03 24.1716 14.4887 24.8647C14.9475 25.5578 15.1768 26.5851 15.1768 27.9465V30.2465H12.8953V27.9093C12.8953 26.944 12.7626 26.2261 12.497 25.7558C12.2314 25.2608 11.9468 24.939 11.464 24.7905C11.0052 24.642 10.3845 24.5677 9.78097 24.5677C9.17741 24.5677 8.6342 24.642 8.15135 24.7905C7.69264 24.939 7.33051 25.2608 7.06494 25.7558C6.82352 26.2261 6.7028 26.944 6.7028 27.9093V40.9418C6.7028 41.9319 6.82352 42.6745 7.06494 43.1696C7.33051 43.6399 7.69264 43.9493 8.15135 44.0978C8.6342 44.2463 9.17741 44.3206 9.78097 44.3206C10.4087 44.3206 10.9519 44.2463 11.4106 44.0978C11.8693 43.9493 12.2314 43.6399 12.497 43.1696C12.7626 42.6745 12.8953 41.9319 12.8953 40.9418V38.6046H15.1768V40.2734C15.1768 41.8824 14.9475 43.0829 14.4887 43.875C14.03 44.6424 13.4023 45.1498 12.6056 45.3973C11.8089 45.6449 10.8674 45.7686 9.78097 45.7686Z"/>
<path d="M26.3959 45.7686V35.7154L23.9852 34.4256L26.3959 33.2316V24.8647H22.8108V23.0825H32.335V24.7905H28.6774L28.6831 33.2316L31.032 34.4256L28.6774 35.7154V45.7686H26.3959Z"/>
<path d="M38.8826 45.7686L41.2727 35.6196L39.511 34.4256L41.8599 33.2316L43.9109 23.0825H46.8442L48.9066 33.2316L51.2555 34.4256L49.4938 35.6196L51.8428 45.7686H49.3802L47.8944 40.1413H42.6434L41.2727 45.7686H38.8826ZM42.7158 38.8418H47.8582C47.8582 38.8418 46.0305 30.7676 45.3832 30.8436C44.736 30.9195 42.7158 38.8418 42.7158 38.8418Z"/>
<path d="M61.769 45.7686V35.6195L59.8062 34.4255L61.769 33.2315V23.0825H67.9615C69.1928 23.0825 70.1826 23.5815 70.9311 24.1756C71.6795 24.7449 71.9368 25.6608 71.9368 26.9232V30.9703C71.9368 31.8119 72.0117 32.811 71.7703 33.5536C71.5289 34.2715 71.0584 34.784 70.4066 35.2296C69.7547 35.6751 69.169 35.6909 67.9377 35.6909L64.1229 35.76V45.7686H61.769ZM64.1229 34.3862H66.9402C67.9059 34.3862 68.6302 34.0892 69.113 33.4951C69.62 32.8763 69.824 31.9357 69.824 30.6733V27.8143C69.824 26.7252 69.5717 25.9331 69.113 25.438C68.6543 24.9182 68.0991 24.6583 67.4472 24.6583H64.1229V34.3862Z"/>
<path d="M81.6998 45.7688V36.3008L79.1847 34.9664L81.6998 33.6301V28.3564V23.0827H90.9343L90.9293 24.8737H84.0487L84.0534 32.9779H89.5579L89.5581 34.9664H84.0536L84.0537 44.098H90.9343V45.7688H81.6998Z"/>
</mask>
<path d="M9.78097 45.7686C8.7187 45.7686 7.77714 45.6449 6.9563 45.3973C6.1596 45.1498 5.51982 44.6424 5.03697 43.875C4.57827 43.0829 4.34891 41.8948 4.34891 40.3106V35.6196L2 34.4256L4.34891 33.2316V27.9465C4.34891 26.5603 4.57827 25.5207 5.03697 24.8276C5.51982 24.1345 6.17167 23.6766 6.99251 23.4538C7.8375 23.2063 8.77906 23.0825 9.81718 23.0825C10.8794 23.0825 11.8089 23.2063 12.6056 23.4538C13.4023 23.7013 14.03 24.1716 14.4887 24.8647C14.9475 25.5578 15.1768 26.5851 15.1768 27.9465V30.2465H12.8953V27.9093C12.8953 26.944 12.7626 26.2261 12.497 25.7558C12.2314 25.2608 11.9468 24.939 11.464 24.7905C11.0052 24.642 10.3845 24.5677 9.78097 24.5677C9.17741 24.5677 8.6342 24.642 8.15135 24.7905C7.69264 24.939 7.33051 25.2608 7.06494 25.7558C6.82352 26.2261 6.7028 26.944 6.7028 27.9093V40.9418C6.7028 41.9319 6.82352 42.6745 7.06494 43.1696C7.33051 43.6399 7.69264 43.9493 8.15135 44.0978C8.6342 44.2463 9.17741 44.3206 9.78097 44.3206C10.4087 44.3206 10.9519 44.2463 11.4106 44.0978C11.8693 43.9493 12.2314 43.6399 12.497 43.1696C12.7626 42.6745 12.8953 41.9319 12.8953 40.9418V38.6046H15.1768V40.2734C15.1768 41.8824 14.9475 43.0829 14.4887 43.875C14.03 44.6424 13.4023 45.1498 12.6056 45.3973C11.8089 45.6449 10.8674 45.7686 9.78097 45.7686Z" fill="white"/>
<path d="M26.3959 45.7686V35.7154L23.9852 34.4256L26.3959 33.2316V24.8647H22.8108V23.0825H32.335V24.7905H28.6774L28.6831 33.2316L31.032 34.4256L28.6774 35.7154V45.7686H26.3959Z" fill="white"/>
<path d="M38.8826 45.7686L41.2727 35.6196L39.511 34.4256L41.8599 33.2316L43.9109 23.0825H46.8442L48.9066 33.2316L51.2555 34.4256L49.4938 35.6196L51.8428 45.7686H49.3802L47.8944 40.1413H42.6434L41.2727 45.7686H38.8826ZM42.7158 38.8418H47.8582C47.8582 38.8418 46.0305 30.7676 45.3832 30.8436C44.736 30.9195 42.7158 38.8418 42.7158 38.8418Z" fill="white"/>
<path d="M61.769 45.7686V35.6195L59.8062 34.4255L61.769 33.2315V23.0825H67.9615C69.1928 23.0825 70.1826 23.5815 70.9311 24.1756C71.6795 24.7449 71.9368 25.6608 71.9368 26.9232V30.9703C71.9368 31.8119 72.0117 32.811 71.7703 33.5536C71.5289 34.2715 71.0584 34.784 70.4066 35.2296C69.7547 35.6751 69.169 35.6909 67.9377 35.6909L64.1229 35.76V45.7686H61.769ZM64.1229 34.3862H66.9402C67.9059 34.3862 68.6302 34.0892 69.113 33.4951C69.62 32.8763 69.824 31.9357 69.824 30.6733V27.8143C69.824 26.7252 69.5717 25.9331 69.113 25.438C68.6543 24.9182 68.0991 24.6583 67.4472 24.6583H64.1229V34.3862Z" fill="white"/>
<path d="M81.6998 45.7688V36.3008L79.1847 34.9664L81.6998 33.6301V28.3564V23.0827H90.9343L90.9293 24.8737H84.0487L84.0534 32.9779H89.5579L89.5581 34.9664H84.0536L84.0537 44.098H90.9343V45.7688H81.6998Z" fill="white"/>
<path d="M9.78097 45.7686C8.7187 45.7686 7.77714 45.6449 6.9563 45.3973C6.1596 45.1498 5.51982 44.6424 5.03697 43.875C4.57827 43.0829 4.34891 41.8948 4.34891 40.3106V35.6196L2 34.4256L4.34891 33.2316V27.9465C4.34891 26.5603 4.57827 25.5207 5.03697 24.8276C5.51982 24.1345 6.17167 23.6766 6.99251 23.4538C7.8375 23.2063 8.77906 23.0825 9.81718 23.0825C10.8794 23.0825 11.8089 23.2063 12.6056 23.4538C13.4023 23.7013 14.03 24.1716 14.4887 24.8647C14.9475 25.5578 15.1768 26.5851 15.1768 27.9465V30.2465H12.8953V27.9093C12.8953 26.944 12.7626 26.2261 12.497 25.7558C12.2314 25.2608 11.9468 24.939 11.464 24.7905C11.0052 24.642 10.3845 24.5677 9.78097 24.5677C9.17741 24.5677 8.6342 24.642 8.15135 24.7905C7.69264 24.939 7.33051 25.2608 7.06494 25.7558C6.82352 26.2261 6.7028 26.944 6.7028 27.9093V40.9418C6.7028 41.9319 6.82352 42.6745 7.06494 43.1696C7.33051 43.6399 7.69264 43.9493 8.15135 44.0978C8.6342 44.2463 9.17741 44.3206 9.78097 44.3206C10.4087 44.3206 10.9519 44.2463 11.4106 44.0978C11.8693 43.9493 12.2314 43.6399 12.497 43.1696C12.7626 42.6745 12.8953 41.9319 12.8953 40.9418V38.6046H15.1768V40.2734C15.1768 41.8824 14.9475 43.0829 14.4887 43.875C14.03 44.6424 13.4023 45.1498 12.6056 45.3973C11.8089 45.6449 10.8674 45.7686 9.78097 45.7686Z" stroke="white" stroke-width="2" stroke-linejoin="round" mask="url(#path-4-outside-3_206_3)"/>
<path d="M26.3959 45.7686V35.7154L23.9852 34.4256L26.3959 33.2316V24.8647H22.8108V23.0825H32.335V24.7905H28.6774L28.6831 33.2316L31.032 34.4256L28.6774 35.7154V45.7686H26.3959Z" stroke="white" stroke-width="2" stroke-linejoin="round" mask="url(#path-4-outside-3_206_3)"/>
<path d="M38.8826 45.7686L41.2727 35.6196L39.511 34.4256L41.8599 33.2316L43.9109 23.0825H46.8442L48.9066 33.2316L51.2555 34.4256L49.4938 35.6196L51.8428 45.7686H49.3802L47.8944 40.1413H42.6434L41.2727 45.7686H38.8826ZM42.7158 38.8418H47.8582C47.8582 38.8418 46.0305 30.7676 45.3832 30.8436C44.736 30.9195 42.7158 38.8418 42.7158 38.8418Z" stroke="white" stroke-width="2" stroke-linejoin="round" mask="url(#path-4-outside-3_206_3)"/>
<path d="M61.769 45.7686V35.6195L59.8062 34.4255L61.769 33.2315V23.0825H67.9615C69.1928 23.0825 70.1826 23.5815 70.9311 24.1756C71.6795 24.7449 71.9368 25.6608 71.9368 26.9232V30.9703C71.9368 31.8119 72.0117 32.811 71.7703 33.5536C71.5289 34.2715 71.0584 34.784 70.4066 35.2296C69.7547 35.6751 69.169 35.6909 67.9377 35.6909L64.1229 35.76V45.7686H61.769ZM64.1229 34.3862H66.9402C67.9059 34.3862 68.6302 34.0892 69.113 33.4951C69.62 32.8763 69.824 31.9357 69.824 30.6733V27.8143C69.824 26.7252 69.5717 25.9331 69.113 25.438C68.6543 24.9182 68.0991 24.6583 67.4472 24.6583H64.1229V34.3862Z" stroke="white" stroke-width="2" stroke-linejoin="round" mask="url(#path-4-outside-3_206_3)"/>
<path d="M81.6998 45.7688V36.3008L79.1847 34.9664L81.6998 33.6301V28.3564V23.0827H90.9343L90.9293 24.8737H84.0487L84.0534 32.9779H89.5579L89.5581 34.9664H84.0536L84.0537 44.098H90.9343V45.7688H81.6998Z" stroke="white" stroke-width="2" stroke-linejoin="round" mask="url(#path-4-outside-3_206_3)"/>
<path d="M51.014 52.6271C50.2682 53.4059 49.7089 56.7865 49.9886 56.7865H50.3615L49.8953 63.1584C49.8643 63.6894 49.9326 64.8576 50.4547 65.2823C51.1072 65.8133 51.7598 64.4859 51.853 64.3089C51.9462 64.1319 51.6665 64.2204 51.5733 64.0434C51.4801 63.8664 51.853 60.1494 51.9462 58.7335C52.0395 57.3175 53.5621 51.6536 53.1581 51.6536C52.7541 51.6536 51.7598 51.8483 51.014 52.6271Z" fill="white" stroke="white" stroke-width="0.2" stroke-linejoin="round"/>
<path d="M38.3358 58.095C37.9629 58.272 37.4968 64.5745 37.3103 64.7515C37.1239 64.9285 36.9625 64.8229 36.3781 65.017C35.7937 65.2112 36.0477 64.3854 36.0984 63.778C36.1491 63.1707 36.9374 53.0697 37.0306 52.7158C37.1281 52.3459 39.3612 51.2113 39.3612 51.3883C39.3612 51.5653 39.268 54.3087 39.6409 56.0787C40.0137 57.8487 40.5731 58.1142 41.3189 58.3796C41.9714 58.4681 42.7918 58.2911 44.5816 56.1672C47.4715 52.7379 48.0841 52.6273 48.2173 52.8042C48.6834 53.4237 48.3105 54.6627 48.124 55.5477L47.0054 59.5301L45.9799 63.6011C45.8867 63.8665 44.302 65.371 44.4884 64.84C44.6748 64.309 46.0732 56.9637 45.7003 56.6982C45.3274 56.4327 44.558 57.7478 43.3697 58.9106C42.1815 60.0735 41.6917 60.0611 41.3189 60.1496C41.3189 60.1496 40.4799 60.3075 40.0137 59.865C39.4544 59.334 38.7086 57.918 38.3358 58.095Z" fill="white" stroke="white" stroke-width="0.2" stroke-linejoin="round"/>
<path d="M62.6667 58.9989C62.3684 59.5653 61.4548 59.7069 61.2684 59.5299C61.0705 59.2169 61.2095 57.6597 61.548 56.521C61.8865 55.3823 62.2232 55.1586 62.4802 54.397C62.9068 53.1336 60.9064 53.1177 60.1497 53.2465C59.0787 53.4289 57.8654 54.663 57.4463 55.1935C57.1666 55.5475 57.0107 55.6077 56.514 56.7865C55.9547 58.114 55.7683 60.5034 56.0479 61.5654C56.514 62.7159 57.734 64.3886 59.6836 64.2203C60.6942 64.1331 61.6413 63.6009 62.5735 63.1584C63.5757 62.6274 63.9232 62.0938 64.065 62.2734C64.065 62.2734 64.2515 62.4504 64.3447 62.9814C64.4379 63.5124 60.709 65.2823 60.0565 65.3708C60.0565 65.3708 56.2344 66.2558 54.6496 63.6009C53.0648 60.9459 54.3699 57.6715 54.9293 56.344C55.4886 55.0165 58.9378 51.3881 61.6413 51.6536C64.3447 51.9191 63.9718 53.2465 63.9718 53.6005C63.9718 54.0518 63.7636 55.984 63.6921 56.2555C63.5057 56.9635 63.0396 58.291 62.6667 58.9989Z" fill="white" stroke="white" stroke-width="0.2" stroke-linejoin="round"/>
<path d="M70.3109 52.8927C70.4041 53.4236 70.9635 53.4236 70.9635 53.9546C70.8702 55.1936 70.773 55.4298 70.5906 56.3441C70.4082 57.2584 70.3109 57.5831 70.1245 58.645C69.938 59.6185 69.8448 62.716 69.7516 64.5744C69.7516 64.6629 69.2485 64.9813 69.1922 65.0169C69.008 65.1335 68.6329 65.1939 68.6329 65.1054C68.7261 64.5744 68.4982 63.9399 68.4465 63.247C68.3205 61.5577 68.3732 60.6026 68.4465 58.9105C68.5471 56.5859 69.1923 52.9812 69.0577 52.9812C68.8194 52.8927 68.3533 52.9372 67.5143 53.0696C67.2346 53.1138 66.6923 53.2975 65.8882 53.5121C65.5566 53.6006 65.5566 52.1847 65.5566 52.1847C65.5566 52.1847 65.6731 51.9192 66.4888 51.4767C67.1414 51.1227 68.2836 51.0407 69.4719 50.9457C70.2337 50.8848 70.5906 50.8965 71.4622 50.9457C72.1753 50.986 72.7347 51.0342 73.0143 51.1227C73.2817 51.2073 73.3872 52.8042 73.1076 52.7619C72.2686 52.8927 70.4974 52.1847 70.3109 52.8927Z" fill="white" stroke="white" stroke-width="0.2" stroke-linejoin="round"/>
<path d="M80.9483 62.6039C80.1446 63.3354 78.9327 64.1319 77.5858 64.6393C76.4157 64.9284 75.6699 64.8396 74.8889 63.9105C74.5513 63.5089 74.3304 62.9521 74.2363 61.8751C74.1784 61.2115 74.3648 58.999 74.3648 58.822C74.2716 58.645 74.1784 58.822 74.1784 58.9105C74.1784 58.999 74.2716 58.999 73.8987 59.2645C73.3394 59.53 73.4163 59.1956 73.4326 59.0875C73.5258 58.468 74.5513 56.6096 74.8309 56.0786C75.1106 55.4591 75.3921 54.711 75.4835 54.4856C75.6469 54.1145 75.9301 53.2907 76.194 52.7597C76.4579 52.2288 76.9144 51.5208 77.3127 51.5208C77.6352 51.5679 77.6077 51.8872 77.5344 52.0961C77.3479 52.6271 76.7758 53.1403 77.2547 53.3351C77.7208 53.1581 78.0584 52.8482 78.711 52.2288C79.3988 51.5758 80.2963 51.5431 80.6687 51.5208C82.0676 51.4368 83.3447 52.4588 83.9314 53.7332C84.4908 55.2377 84.526 55.592 84.526 55.9016C84.526 56.3885 84.584 56.763 84.4907 57.7157C84.3975 58.533 83.687 59.7955 83.2789 60.3029C82.9141 60.8355 81.8097 61.8199 80.9483 62.6039ZM81.2632 61.123C81.9809 60.415 82.4398 59.3971 82.5331 59.1316C82.8128 58.3351 82.906 57.5418 82.906 56.8307C82.906 56.2997 82.906 56.0342 82.5331 55.1492C82.1054 54.1342 81.7294 53.6006 81.0416 53.4677C79.9229 53.2907 79.3056 53.3842 78.6178 53.6447C77.8966 53.9179 77.3479 54.5741 76.8818 55.1051C76.5089 55.6361 76.4157 56.1671 76.3225 56.6096C76.2293 57.1406 76.2293 57.3175 76.136 57.76C76.0601 58.3381 75.9496 58.645 75.8564 59.53C75.8564 60.415 75.9496 61.9195 76.2872 62.4505C76.7886 63.1584 77.3055 63.3354 77.6276 63.3354C78.0937 63.3354 78.8395 62.9814 79.492 62.6039C80.2378 62.0937 80.7039 61.6748 81.2632 61.123Z" fill="white" stroke="white" stroke-width="0.2" stroke-linejoin="round"/>
</svg>
